<?xml version="1.0" encoding="iso-8859-1"?>
<!-- Generator: Adobe Illustrator 16.0.0, SVG Export Plug-In . SVG Version: 6.00 Build 0)  -->
<!DOCTYPE svg PUBLIC "-//W3C//DTD SVG 1.1//EN" "http://www.w3.org/Graphics/SVG/1.1/DTD/svg11.dtd">
<svg version="1.1" id="Capa_1" xmlns="http://www.w3.org/2000/svg" xmlns:xlink="http://www.w3.org/1999/xlink" x="0px" y="0px"
	 width="170.21px" height="170.211px" viewBox="0 0 170.21 170.211" style="enable-background:new 0 0 170.21 170.211;"
	 xml:space="preserve">
<g>
	<g>
		<path d="M129.564,114.664v-59.08c0.112-1.691-0.708-3.389-2.623-4.668l-3.83-2.555c-3.604-2.402-4.991-7.559-3.062-11.448
			l2.035-4.123c1.924-3.89-0.046-7.302-4.374-7.581l-4.591-0.298c-4.323-0.273-8.097-4.05-8.381-8.375l-0.298-4.586
			c-0.279-4.325-3.688-6.303-7.579-4.375l-4.123,2.033c-3.891,1.929-9.039,0.55-11.443-3.064l-2.557-3.833
			c-2.407-3.614-6.341-3.614-8.752,0l-2.551,3.838c-2.412,3.614-7.555,4.993-11.442,3.064l-4.127-2.038
			c-3.887-1.929-7.294,0.05-7.581,4.375l-0.296,4.597c-0.28,4.326-4.051,8.096-8.376,8.376l-4.599,0.292
			c-4.326,0.279-6.299,3.686-4.372,7.583l2.04,4.123c1.921,3.887,0.542,9.044-3.067,11.446l-3.825,2.55
			c-1.917,1.279-2.74,2.977-2.624,4.657v105.61h77.374c0.897,1.764,1.98,3.524,3.619,5.165c2.563,2.562,6.373,3.863,11.309,3.863
			c8.284,0,17.543-3.688,17.926-3.841l19.94-19.508c0.804-0.805,1.756-2.217,1.724-4.408
			C150.962,137.286,144.78,129.259,129.564,114.664z M40,142.388l-3.621-1.9l-3.614,1.9l0.696-4.034l-2.934-2.846l4.048-0.58
			l1.805-3.666l1.803,3.666l4.052,0.58l-2.929,2.846L40,142.388z M39.31,102.785l0.696,4.028l-3.62-1.895l-3.615,1.895l0.695-4.028
			l-2.93-2.849l4.043-0.588l1.807-3.655l1.803,3.655l4.051,0.588L39.31,102.785z M39.31,67.223l0.696,4.027l-3.62-1.888
			l-3.615,1.888l0.695-4.027l-2.93-2.854l4.043-0.583l1.807-3.663l1.803,3.663l4.051,0.583L39.31,67.223z M63.308,145.839v3.012
			h-2.885v-2.805c-1.978-0.092-3.89-0.612-5.015-1.274l0.878-3.441c1.239,0.673,2.977,1.279,4.897,1.279
			c1.681,0,2.834-0.628,2.834-1.821c0-1.127-0.946-1.816-3.124-2.556c-3.155-1.061-5.309-2.544-5.309-5.406
			c0-2.582,1.828-4.629,4.982-5.253v-2.791h2.892v2.595c1.978,0.093,3.299,0.503,4.274,0.973l-0.856,3.328
			c-0.769-0.317-2.124-0.996-4.249-0.996c-1.91,0-2.531,0.82-2.531,1.641c0,0.985,1.032,1.598,3.534,2.55
			c3.507,1.237,4.924,2.847,4.924,5.505C68.564,143.005,66.703,145.247,63.308,145.839z M63.308,110.271v3.01h-2.885v-2.807
			c-1.978-0.093-3.89-0.607-5.015-1.265l0.878-3.441c1.239,0.668,2.977,1.285,4.897,1.285c1.681,0,2.834-0.645,2.834-1.839
			c0-1.11-0.946-1.811-3.124-2.55c-3.155-1.066-5.309-2.532-5.309-5.406c0-2.593,1.828-4.629,4.982-5.253v-2.802h2.892v2.595
			c1.978,0.099,3.299,0.504,4.274,0.974l-0.856,3.338c-0.769-0.328-2.124-0.985-4.249-0.985c-1.91,0-2.531,0.815-2.531,1.643
			c0,0.973,1.032,1.575,3.534,2.539c3.507,1.225,4.924,2.845,4.924,5.498C68.564,107.431,66.703,109.681,63.308,110.271z
			 M63.308,74.714v3.004h-2.885v-2.813c-1.978-0.079-3.89-0.607-5.015-1.261l0.878-3.453c1.239,0.684,2.977,1.294,4.897,1.294
			c1.681,0,2.834-0.637,2.834-1.825c0-1.116-0.946-1.816-3.124-2.566c-3.155-1.053-5.309-2.534-5.309-5.396
			c0-2.596,1.828-4.634,4.982-5.257v-2.803h2.892v2.596c1.978,0.102,3.299,0.509,4.274,0.98l-0.856,3.335
			c-0.769-0.331-2.124-1.003-4.249-1.003c-1.91,0-2.531,0.822-2.531,1.646c0,0.982,1.032,1.598,3.534,2.545
			c3.507,1.234,4.924,2.856,4.924,5.507C68.564,71.879,66.703,74.109,63.308,74.714z M66.943,31.54c0-4.219,3.42-7.636,7.639-7.636
			c4.219,0,7.636,3.417,7.636,7.636c0,4.219-3.417,7.636-7.636,7.636C70.364,39.176,66.943,35.759,66.943,31.54z M146.554,144.079
			c-4.164,4.161-18.629,18.63-18.629,18.63s-18.411,7.404-24.979,0.849c-3.628-3.632-4.568-7.989-5.371-11.771l7.271,7.283
			c0.593,0.585,1.564,0.585,2.167,0c0.593-0.602,0.593-1.563,0-2.171l-12.99-12.976l-0.075-0.07
			c-5.613-5.61-12.568-12.559-17.572-17.555c-4.391-4.399,0.08-10.557,4.864-9.208l23.82,23.823h1.079v-1.089l-11.022-11.015
			c-1.237-3.819,1.718-7.442,5.51-6.479l11.508,11.513h1.078v-1.094l-10.733-10.725c-1.475-3.799,1.442-7.475,5.716-6.271
			l11.022,11.011h1.07v-1.086l-9.226-9.225c-2.22-4.904,4.641-9.72,8.82-5.536C123.134,114.167,151.424,139.207,146.554,144.079z"/>
	</g>
</g>
<g>
</g>
<g>
</g>
<g>
</g>
<g>
</g>
<g>
</g>
<g>
</g>
<g>
</g>
<g>
</g>
<g>
</g>
<g>
</g>
<g>
</g>
<g>
</g>
<g>
</g>
<g>
</g>
<g>
</g>
</svg>
