<?xml version="1.0" encoding="iso-8859-1"?>
<!-- Generator: Adobe Illustrator 19.0.0, SVG Export Plug-In . SVG Version: 6.00 Build 0)  -->
<svg version="1.1" id="Capa_1" xmlns="http://www.w3.org/2000/svg" xmlns:xlink="http://www.w3.org/1999/xlink" x="0px" y="0px"
	 viewBox="0 0 480.006 480.006" style="enable-background:new 0 0 480.006 480.006;" xml:space="preserve">
<g>
	<g>
		<path d="M240.009,0c-2.19,0-4.379,0.053-6.566,0.158c-73.501,4.391-130.534,65.84-129.44,139.464
			c-0.026,25.077,4.94,49.909,14.608,73.048l26.008,62.416l14.768-6.16l-26.008-62.4c-8.85-21.194-13.397-43.936-13.376-66.904
			c-1.073-65.068,49.231-119.468,114.184-123.48c66.196-3.212,122.463,47.847,125.675,114.043c0.094,1.939,0.141,3.88,0.141,5.821
			v3.616c0.025,22.963-4.522,45.701-13.376,66.888l-26.008,62.4l14.768,6.16l26.008-62.4c9.668-23.139,14.634-47.971,14.608-73.048
			v-3.616C376.007,60.896,315.12,0.003,240.009,0z"/>
	</g>
</g>
<g>
	<g>
		<path d="M352.003,328.006h-64v-44.992c29.662-17.125,47.953-48.757,48-83.008v-40h8v-16h-23.016
			c-11.094-0.014-20.738-7.616-23.344-18.4l-17.936-63.76c-0.968-3.454-4.117-5.841-7.704-5.84c-3.575-0.001-6.716,2.37-7.696,5.808
			l-16.48,57.952c-3.559,14.238-16.348,24.23-31.024,24.24h-80.8v16h8v40c0.047,34.251,18.338,65.883,48,83.008v44.992h-64
			c-30.913,0.035-55.965,25.087-56,56v88c0,4.418,3.582,8,8,8h320c4.418,0,8-3.582,8-8v-88
			C407.968,353.093,382.916,328.042,352.003,328.006z M160.003,200.006v-40h56.8c21.946,0.052,41.115-14.83,46.504-36.104
			l8.68-30.52l10.224,36.328c4.358,17.432,19.828,29.801,37.792,30.216v40.08c0,44.183-35.817,80-80,80
			C195.82,280.006,160.003,244.189,160.003,200.006z M200.003,344.006c4.418,0,8-3.582,8-8v-45.6c20.68,7.466,43.32,7.466,64,0v45.6
			c0,4.418,3.582,8,8,8h14.528c-3.378,9.555-12.394,15.958-22.528,16h-64c-10.134-0.042-19.15-6.445-22.528-16H200.003z
			 M392.003,464.006h-304v-80c0.026-22.08,17.92-39.974,40-40h40.8c3.825,18.613,20.198,31.979,39.2,32h64
			c19.002-0.021,35.375-13.387,39.2-32h40.8c22.08,0.026,39.974,17.92,40,40V464.006z"/>
	</g>
</g>
<g>
	<g>
		<path d="M200.003,178.006c-7.732,0-14,6.268-14,14s6.268,14,14,14s14-6.268,14-14
			C213.994,184.278,207.731,178.015,200.003,178.006z M198.003,192.006c0-1.105,0.895-2,2-2s2,0.895,2,2
			C202.003,194.206,198.003,194.206,198.003,192.006z"/>
	</g>
</g>
<g>
	<g>
		<path d="M280.003,178.006c-7.732,0-14,6.268-14,14c0.009,7.728,6.272,13.991,14,14c7.732,0,14-6.268,14-14
			S287.735,178.006,280.003,178.006z M278.003,192.006c0-1.105,0.895-2,2-2c1.105,0,2,0.895,2,2
			C282.003,194.206,278.003,194.206,278.003,192.006z"/>
	</g>
</g>
<g>
	<g>
		<path d="M258.003,232.006c0,9.941-8.059,18-18,18c-9.941,0-18-8.059-18-18h-12c0,16.569,13.431,30,30,30s30-13.431,30-30H258.003z
			"/>
	</g>
</g>
<g>
</g>
<g>
</g>
<g>
</g>
<g>
</g>
<g>
</g>
<g>
</g>
<g>
</g>
<g>
</g>
<g>
</g>
<g>
</g>
<g>
</g>
<g>
</g>
<g>
</g>
<g>
</g>
<g>
</g>
</svg>
